<?xml version="1.0" encoding="UTF-8"?>
<svg xmlns="http://www.w3.org/2000/svg" viewBox="0 0 1127.94 1017.01">
  <defs>
    <style>
      .cls-1 {
        fill: #81952c;
      }

      .cls-1, .cls-2, .cls-3, .cls-4, .cls-5, .cls-6 {
        stroke-width: 0px;
      }

      .cls-2 {
        fill: #fcf4e2;
      }

      .cls-3 {
        fill: #002a35;
      }

      .cls-4 {
        fill: #c14b1d;
      }

      .cls-5 {
        fill: #2783c4;
      }

      .cls-6 {
        fill: #666cb1;
      }
    </style>
  </defs>
  <g id="background">
    <rect class="cls-3" width="1017.01" height="1017.01"/>
  </g>
  <g id="_レイヤー_1" data-name="レイヤー 1">
    <path class="cls-1" d="M630.29,290.49c3.71-7.82-51.08-55.54-122.87-70.92-115.06-24.66-222.89,44.67-220.17,53.6,2.28,7.49,81.13-31.46,199.37-17.44,85.98,10.19,140.16,42.15,143.67,34.76Z"/>
    <path class="cls-1" d="M627.47,290.04c-3.83-7.89,15.42-30.55,39.77-39.68,61.57-23.08,140.99,45.87,137.44,53.33-2.13,4.48-32.46-16.82-89.06-18.69-51.61-1.71-83.76,14.1-88.15,5.05Z"/>
    <path class="cls-1" d="M629.95,291.23c2.84-4.56-22.62-50.67-60.21-83.05-68.58-59.08-148.5-47.47-149.21-40.5-.59,5.83,54.67,5.79,127.14,55.37,50.44,34.51,79.47,72.69,82.27,68.19Z"/>
    <path class="cls-1" d="M630.15,288.95c.85-5.98-26.94-18.44-54.97-20.89-78.85-6.89-146.69,66.59-142.93,72.57,2.68,4.26,39.87-28.88,112.7-41.78,48.31-8.56,84.27-3.24,85.21-9.9Z"/>
    <path class="cls-1" d="M628.82,290.7c.47-4.04,34.77-8.38,68.24,2.26,46.9,14.91,76.34,54.18,73.34,58.04-2.72,3.51-31.1-23.64-89.83-44.03-31.51-10.93-52.12-13.1-51.75-16.28Z"/>
    <path class="cls-4" d="M720.88,756.33c7.01-47.89,12.36-116.66,1.65-198.14-20.43-155.5-88.06-271.59-95.66-269.7-7.51,1.88,54.69,116.44,42.88,273.82-6.12,81.56-30.13,148.16-51.13,194.02"/>
    <path class="cls-5" d="M869.43,785.26c-38-29.67-95.8-64.41-166.57-64.32-74.86.1-92.27,39.08-168.22,42.88-100.3,5.02-130.07-59.94-224.3-69.27-52.11-5.16-128.87,6.21-229.25,87.41"/>
    <path class="cls-6" d="M459.87,502.93l-71.22,81.21c-23.37-20.5-36.79-50.12-36.79-81.21,0-59.25,48.76-108.01,108.01-108.01s108.01,48.76,108.01,108.01h-108.01Z"/>
    <path class="cls-6" d="M381.2,598.67l71.29-81.14c23.35,20.52,36.75,50.15,36.72,81.24-.05,59.25-48.85,107.97-108.11,107.92-59.25-.05-107.97-48.85-107.92-108.11l108.01.09Z"/>
    <circle class="cls-2" cx="510.88" cy="466.74" r="13.69"/>
    <rect class="cls-5" x="101.34" y="780.08" width="749.03" height="172.45"/>
  </g>
</svg>