<svg
      preserveAspectRatio="none"
      viewBox="280 160 560 580"
      version="1.1"
      xmlns="http://www.w3.org/2000/svg"
      xmlns:xlink="http://www.w3.org/1999/xlink">
      <defs>
        <style>
          .leaf {
            fill: #81952c;
          }
          .tree {
            fill: #c14b1d;
          }
          .leaf, .tree {
            stroke-width: 0px;
          }
        </style>
      </defs>
      <path
        class="leaf"
        d="M630.29,290.49c3.71-7.82-51.08-55.54-122.87-70.92-115.06-24.66-222.89,44.67-220.17,53.6,2.28,7.49,81.13-31.46,199.37-17.44,85.98,10.19,140.16,42.15,143.67,34.76Z" />
      <path
        class="leaf"
        d="M627.47,290.04c-3.83-7.89,15.42-30.55,39.77-39.68,61.57-23.08,140.99,45.87,137.44,53.33-2.13,4.48-32.46-16.82-89.06-18.69-51.61-1.71-83.76,14.1-88.15,5.05Z" />
      <path
        class="leaf"
        d="M629.95,291.23c2.84-4.56-22.62-50.67-60.21-83.05-68.58-59.08-148.5-47.47-149.21-40.5-.59,5.83,54.67,5.79,127.14,55.37,50.44,34.51,79.47,72.69,82.27,68.19Z" />
      <path
        class="leaf"
        d="M630.15,288.95c.85-5.98-26.94-18.44-54.97-20.89-78.85-6.89-146.69,66.59-142.93,72.57,2.68,4.26,39.87-28.88,112.7-41.78,48.31-8.56,84.27-3.24,85.21-9.9Z" />
      <path
        class="leaf"
        d="M628.82,290.7c.47-4.04,34.77-8.38,68.24,2.26,46.9,14.91,76.34,54.18,73.34,58.04-2.72,3.51-31.1-23.64-89.83-44.03-31.51-10.93-52.12-13.1-51.75-16.28Z" />
      <path
        class="tree"
        d="M720.88,756.33c7.01-47.89,12.36-116.66,1.65-198.14-20.43-155.5-88.06-271.59-95.66-269.7-7.51,1.88,54.69,116.44,42.88,273.82-6.12,81.56-30.13,148.16-51.13,194.02" />
</svg>
